<svg width="100" height="101" viewBox="0 0 100 101" fill="none" xmlns="http://www.w3.org/2000/svg">
<path d="M37.5 38H62.5V31.75H37.5V38ZM37.5 50.5H50V44.25H37.5V50.5ZM68.75 13H31.25C24.375 13 18.75 18.625 18.75 25.5V75.5C18.75 82.375 24.375 88 31.25 88H62.5L81.25 69.25V25.5C81.25 18.625 75.625 13 68.75 13ZM71.875 56.75H62.5C55.625 56.75 50 62.375 50 69.25V78.625H31.25C29.375 78.625 28.125 77.375 28.125 75.5V25.5C28.125 23.625 29.375 22.375 31.25 22.375H68.75C70.625 22.375 71.875 23.625 71.875 25.5V56.75Z" fill="#FBA72E"/>
</svg>
