<svg width="219" height="60" viewBox="0 0 219 60" fill="none" xmlns="http://www.w3.org/2000/svg">
<g clip-path="url(#clip0_1301_2440)">
<g clip-path="url(#clip1_1301_2440)">
<g clip-path="url(#clip2_1301_2440)">
<g clip-path="url(#clip3_1301_2440)">
<g clip-path="url(#clip4_1301_2440)">
<g clip-path="url(#clip5_1301_2440)">
<path d="M69.3744 44.7963H66.0718V31.195H50.7757V44.7963H47.4297V14.7256H50.7757V28.1966H66.0718V14.7256H69.3744V44.7963ZM75.0235 33.8892C75.0235 29.9203 75.7333 27.0523 77.1528 25.2851C78.5723 23.518 80.9681 22.6344 84.3402 22.6344C87.7181 22.6344 90.1082 23.518 91.5103 25.2851C92.9182 27.0523 93.6222 29.9203 93.6222 33.8892C93.6222 37.8581 92.9559 40.7406 91.6233 42.5367C90.2907 44.3328 87.8572 45.2309 84.3229 45.2309C80.7885 45.2309 78.3551 44.3328 77.0224 42.5367C75.6898 40.7406 75.0235 37.8581 75.0235 33.8892ZM78.3695 33.8196C78.3695 36.9948 78.7519 39.2196 79.5168 40.4943C80.2873 41.769 81.8952 42.4063 84.3402 42.4063C86.7911 42.4063 88.3931 41.7748 89.1463 40.5117C89.8996 39.2544 90.2762 37.0324 90.2762 33.8457C90.2762 30.659 89.8561 28.4631 89.016 27.258C88.1759 26.0586 86.6173 25.4589 84.3402 25.4589C82.069 25.4589 80.5046 26.0586 79.6471 27.258C78.7954 28.4631 78.3695 30.6503 78.3695 33.8196ZM102.183 27.1537V44.7963H98.9237V23.0689H102.139V24.5898C104.486 23.2862 106.731 22.6344 108.875 22.6344C111.772 22.6344 113.719 23.4166 114.715 24.9809C115.718 26.5453 116.219 29.3264 116.219 33.3243V44.7963H113.003V33.4112C113.003 30.3983 112.705 28.3327 112.108 27.2145C111.517 26.1021 110.251 25.5458 108.31 25.5458C107.383 25.5458 106.404 25.682 105.372 25.9543C104.347 26.2324 103.559 26.5019 103.008 26.7626L102.183 27.1537ZM137.025 42.1021L138.285 41.9718L138.372 44.5356C135.069 44.9991 132.245 45.2309 129.898 45.2309C126.77 45.2309 124.553 44.3241 123.25 42.5106C121.946 40.7029 121.294 37.887 121.294 34.063C121.294 26.4439 124.322 22.6344 130.376 22.6344C133.302 22.6344 135.49 23.4513 136.938 25.0852C138.386 26.7249 139.111 29.2974 139.111 32.8028L138.937 35.2797H124.597C124.597 37.6842 125.031 39.4659 125.9 40.6247C126.77 41.7835 128.285 42.3629 130.446 42.3629C132.601 42.3629 134.794 42.276 137.025 42.1021ZM124.553 32.6724H135.852C135.852 30.0072 135.426 28.1242 134.574 27.0233C133.717 25.9225 132.326 25.372 130.402 25.372C128.473 25.372 127.024 25.9514 126.057 27.1102C125.084 28.269 124.582 30.1231 124.553 32.6724ZM151.017 25.5458C147.86 25.5458 146.281 26.6467 146.281 28.8484C146.281 29.8624 146.643 30.5779 147.367 30.9951C148.091 31.418 149.743 31.8526 152.321 32.2987C154.899 32.7507 156.724 33.3822 157.796 34.1934C158.868 35.0045 159.404 36.5254 159.404 38.7561C159.404 40.9868 158.689 42.6236 157.257 43.6665C155.821 44.7094 153.726 45.2309 150.974 45.2309C149.178 45.2309 147.063 45.0281 144.63 44.6225L143.326 44.4053L143.5 41.5807C146.802 42.0732 149.294 42.3194 150.974 42.3194C152.654 42.3194 153.938 42.05 154.824 41.5112C155.705 40.9781 156.145 40.08 156.145 38.817C156.145 37.5597 155.768 36.7051 155.015 36.2531C154.262 35.807 152.611 35.3811 150.061 34.9755C147.512 34.57 145.701 33.9761 144.63 33.1939C143.558 32.4117 143.022 30.9632 143.022 28.8484C143.022 26.7336 143.769 25.1692 145.264 24.1553C146.753 23.1413 148.613 22.6344 150.844 22.6344C152.611 22.6344 154.827 22.8372 157.492 23.2427L158.709 23.46L158.622 26.2411C155.406 25.7776 152.871 25.5458 151.017 25.5458ZM175.656 23.0689V25.8935H168.747V36.2792C168.747 38.7706 168.927 40.4074 169.286 41.1896C169.651 41.9718 170.514 42.3629 171.876 42.3629L175.743 42.1021L175.96 44.7963C174.019 45.115 172.542 45.2743 171.528 45.2743C169.268 45.2743 167.704 44.7239 166.835 43.6231C165.966 42.5222 165.531 40.4219 165.531 37.3221V25.8935H162.446V23.0689H165.531V16.4203H168.747V23.0689H175.656ZM193.212 40.7116V23.0689H196.471V44.7963H193.212V43.2754C191.039 44.5791 188.896 45.2309 186.781 45.2309C183.826 45.2309 181.862 44.4632 180.888 42.9278C179.921 41.3924 179.437 38.5533 179.437 34.4106V23.0689H182.696V34.3672C182.696 37.5249 182.971 39.6397 183.522 40.7116C184.072 41.7835 185.318 42.3194 187.259 42.3194C188.215 42.3194 189.185 42.1804 190.17 41.9023C191.155 41.6299 191.908 41.3634 192.43 41.1027L193.212 40.7116ZM209.542 25.5458C206.385 25.5458 204.806 26.6467 204.806 28.8484C204.806 29.8624 205.168 30.5779 205.892 30.9951C206.616 31.418 208.268 31.8526 210.846 32.2987C213.424 32.7507 215.249 33.3822 216.321 34.1934C217.393 35.0045 217.929 36.5254 217.929 38.7561C217.929 40.9868 217.214 42.6236 215.783 43.6665C214.346 44.7094 212.251 45.2309 209.499 45.2309C207.703 45.2309 205.588 45.0281 203.154 44.6225L201.851 44.4053L202.025 41.5807C205.327 42.0732 207.819 42.3194 209.499 42.3194C211.179 42.3194 212.463 42.05 213.349 41.5112C214.23 40.9781 214.67 40.08 214.67 38.817C214.67 37.5597 214.293 36.7051 213.54 36.2531C212.787 35.807 211.136 35.3811 208.586 34.9755C206.037 34.57 204.226 33.9761 203.154 33.1939C202.083 32.4117 201.547 30.9632 201.547 28.8484C201.547 26.7336 202.294 25.1692 203.789 24.1553C205.278 23.1413 207.138 22.6344 209.369 22.6344C211.136 22.6344 213.352 22.8372 216.017 23.2427L217.234 23.46L217.147 26.2411C213.931 25.7776 211.396 25.5458 209.542 25.5458Z" fill="#757575"/>
</g>
</g>
</g>
</g>
<g clip-path="url(#clip6_1301_2440)">
<g clip-path="url(#clip7_1301_2440)">
<path d="M20.2268 0.00878906C20.2268 12.3842 0.232422 26.2891 0.232422 39.9969C0.232422 46.7529 3.58287 52.7261 8.7126 56.3458C8.7126 43.9698 28.707 30.0655 28.707 16.3577C28.707 9.60109 25.3565 3.62855 20.2268 0.00878906Z" fill="#FBA72E"/>
<path d="M35.4837 22.9932C32.6603 35.5662 15.8945 48.1821 15.8945 59.5146C17.2894 59.8243 18.7382 59.9914 20.2267 59.9914C31.269 59.9914 40.2211 51.0399 40.2211 39.997C40.2211 35.3722 38.3451 29.2417 35.4837 22.9932Z" fill="#FBA72E"/>
</g>
</g>
</g>
</g>
<defs>
<clipPath id="clip0_1301_2440">
<rect width="217.717" height="59.9825" fill="white" transform="translate(0.232422 0.00878906)"/>
</clipPath>
<clipPath id="clip1_1301_2440">
<rect width="217.717" height="59.9825" fill="white" transform="translate(0.232422 0.00878906)"/>
</clipPath>
<clipPath id="clip2_1301_2440">
<rect width="170.517" height="30.5488" fill="white" transform="translate(47.4209 14.7256)"/>
</clipPath>
<clipPath id="clip3_1301_2440">
<rect width="170.517" height="30.5488" fill="white" transform="translate(47.4209 14.7256)"/>
</clipPath>
<clipPath id="clip4_1301_2440">
<rect width="170.517" height="30.5488" fill="white" transform="translate(47.4209 14.7256)"/>
</clipPath>
<clipPath id="clip5_1301_2440">
<rect width="170.517" height="30.5488" fill="white" transform="translate(47.4209 14.7256)"/>
</clipPath>
<clipPath id="clip6_1301_2440">
<rect width="39.9887" height="59.9825" fill="white" transform="translate(0.232422 0.00878906)"/>
</clipPath>
<clipPath id="clip7_1301_2440">
<rect width="39.9887" height="59.9825" fill="white" transform="translate(0.232422 0.00878906)"/>
</clipPath>
</defs>
</svg>
