<svg width="100" height="101" viewBox="0 0 100 101" fill="none" xmlns="http://www.w3.org/2000/svg">
<path d="M88.2877 65.8526L68.7672 85.3731V58.0444H80.4795L88.2877 65.8526ZM100 65.8526L68.7672 97.0854L37.5344 65.8526L53.1508 50.2362H84.3836L100 65.8526ZM68.7672 91.2292L94.1439 65.8526L82.4315 54.1403H55.1028L43.3905 65.8526L68.7672 91.2292ZM52.2615 44.4797H58.5067L53.8456 37.1715V12.6055H58.9385C62.748 12.6055 62.748 7.2159 58.9385 7.2159H21.8428C18.0333 7.2159 18.0333 12.6055 21.8427 12.6055H26.9355V37.1715L1.126 79.9731C-1.2973 84.0972 0.22391 86.6742 5.37 86.6742H35.8329V81.2845H6.62392L32.397 38.5485V12.6055H48.3841V38.5485L52.2615 44.4797ZM40.6199 75.8738L30.8243 65.7704L47.3116 48.2402H33.1083L16.5413 75.8734L40.6199 75.8738Z" fill="#FBA72E"/>
</svg>
