<svg width="48" height="48" viewBox="0 0 48 48" fill="none" xmlns="http://www.w3.org/2000/svg">
<path d="M17.999 2V16.0006L3.99902 40.0006V46.0006H43.999V40.0006L29.999 16.0006V2M35.9996 26C21.9996 20 23.9996 34 11.9996 28M11.999 2.0006H35.999M29.9996 36C31.1042 36 31.9996 35.1046 31.9996 34C31.9996 32.8954 31.1042 32 29.9996 32C28.8951 32 27.9996 32.8954 27.9996 34C27.9996 35.1046 28.8951 36 29.9996 36ZM17.9996 40C19.1042 40 19.9996 39.1046 19.9996 38C19.9996 36.8954 19.1042 36 17.9996 36C16.8951 36 15.9996 36.8954 15.9996 38C15.9996 39.1046 16.8951 40 17.9996 40Z" stroke="black" stroke-width="2"/>
</svg>
