<svg width="98" height="96" viewBox="0 0 98 96" fill="none" xmlns="http://www.w3.org/2000/svg">
<path d="M71.917 26.6667L94.8337 37.0833V91.25L65.667 78.75M65.667 78.75L32.3337 91.25M65.667 78.75V49.5833M32.3337 91.25L3.16699 78.75V24.5833L24.0003 32.9167M32.3337 91.25V49.5833M49.0003 67.3864C49.0003 67.3864 24.0003 47.5 24.0003 28.75C24.0003 13.125 36.5003 3.75 49.0003 3.75C61.5003 3.75 74.0003 13.125 74.0003 28.75C74.0003 47.5 49.0003 67.3864 49.0003 67.3864ZM53.167 28.75C53.167 26.4486 51.3017 24.5833 49.0003 24.5833C46.6989 24.5833 44.8337 26.4486 44.8337 28.75C44.8337 31.0514 46.6989 32.9167 49.0003 32.9167C51.3017 32.9167 53.167 31.0514 53.167 28.75Z" stroke="#FBA72E" stroke-width="6"/>
</svg>
