<svg width="100" height="101" viewBox="0 0 100 101" fill="none" xmlns="http://www.w3.org/2000/svg">
<path d="M33.3333 29.6667H20.8333C16.231 29.6667 12.5 33.3976 12.5 38V75.5C12.5 80.1025 16.231 83.8333 20.8333 83.8333H79.1667C83.7692 83.8333 87.5 80.1025 87.5 75.5V38C87.5 33.3976 83.7692 29.6667 79.1667 29.6667H66.6667M62.5 46.3333L50 58.8333M50 58.8333L37.5 46.3333M50 58.8333V17.1667" stroke="#FBA72E" stroke-width="8.33333" stroke-linecap="round" stroke-linejoin="round"/>
<path d="M67.6777 61.5779H69.7611V66.7862H74.9694V68.8695H67.6777V61.5779Z" fill="#FBA72E"/>
<path fill-rule="evenodd" clip-rule="evenodd" d="M81.2191 66.7862C81.2191 72.5391 76.5553 77.2029 70.8024 77.2029C65.0494 77.2029 60.3857 72.5391 60.3857 66.7862C60.3857 61.0332 65.0494 56.3695 70.8024 56.3695C76.5553 56.3695 81.2191 61.0332 81.2191 66.7862ZM79.1357 66.7862C79.1357 71.3886 75.4048 75.1195 70.8024 75.1195C66.2 75.1195 62.4691 71.3886 62.4691 66.7862C62.4691 62.1838 66.2 58.4529 70.8024 58.4529C75.4048 58.4529 79.1357 62.1838 79.1357 66.7862Z" fill="#FBA72E"/>
</svg>
